solid STL generated by MeshLab
  facet normal  1.000000e+00  0.000000e+00  0.000000e+00
    outer loop
      vertex   3.250000e+00 -2.480000e+00  1.400000e+01
      vertex   3.250000e+00 -2.480000e+00  9.010000e+00
      vertex   3.250000e+00  2.480000e+00  9.010000e+00
    endloop
  endfacet
  facet normal  1.000000e+00 -0.000000e+00  0.000000e+00
    outer loop
      vertex   3.250000e+00 -2.480000e+00  1.400000e+01
      vertex   3.250000e+00  2.480000e+00  9.010000e+00
      vertex   3.250000e+00  2.480000e+00  1.400000e+01
    endloop
  endfacet
  facet normal  0.000000e+00 -1.000000e+00  0.000000e+00
    outer loop
      vertex   7.730000e-01 -2.480000e+00  1.400000e+01
      vertex   7.730000e-01 -2.480000e+00  9.010000e+00
      vertex   3.250000e+00 -2.480000e+00  9.010000e+00
    endloop
  endfacet
  facet normal  0.000000e+00 -1.000000e+00  0.000000e+00
    outer loop
      vertex   7.730000e-01 -2.480000e+00  1.400000e+01
      vertex   3.250000e+00 -2.480000e+00  9.010000e+00
      vertex   3.250000e+00 -2.480000e+00  1.400000e+01
    endloop
  endfacet
  facet normal -1.000000e+00  0.000000e+00 -0.000000e+00
    outer loop
      vertex   7.730000e-01  2.480000e+00  1.400000e+01
      vertex   7.730000e-01  2.480000e+00  9.010000e+00
      vertex   7.730000e-01 -2.480000e+00  9.010000e+00
    endloop
  endfacet
  facet normal -1.000000e+00 -0.000000e+00  0.000000e+00
    outer loop
      vertex   7.730000e-01  2.480000e+00  1.400000e+01
      vertex   7.730000e-01 -2.480000e+00  9.010000e+00
      vertex   7.730000e-01 -2.480000e+00  1.400000e+01
    endloop
  endfacet
  facet normal  0.000000e+00  1.000000e+00  0.000000e+00
    outer loop
      vertex   3.250000e+00  2.480000e+00  1.400000e+01
      vertex   3.250000e+00  2.480000e+00  9.010000e+00
      vertex   7.730000e-01  2.480000e+00  9.010000e+00
    endloop
  endfacet
  facet normal  0.000000e+00  1.000000e+00  0.000000e+00
    outer loop
      vertex   3.250000e+00  2.480000e+00  1.400000e+01
      vertex   7.730000e-01  2.480000e+00  9.010000e+00
      vertex   7.730000e-01  2.480000e+00  1.400000e+01
    endloop
  endfacet
  facet normal  0.000000e+00  0.000000e+00  1.000000e+00
    outer loop
      vertex   7.730000e-01  2.480000e+00  1.400000e+01
      vertex   7.730000e-01 -2.480000e+00  1.400000e+01
      vertex   3.250000e+00 -2.480000e+00  1.400000e+01
    endloop
  endfacet
  facet normal -0.000000e+00  0.000000e+00  1.000000e+00
    outer loop
      vertex   7.730000e-01  2.480000e+00  1.400000e+01
      vertex   3.250000e+00 -2.480000e+00  1.400000e+01
      vertex   3.250000e+00  2.480000e+00  1.400000e+01
    endloop
  endfacet
  facet normal  0.000000e+00  0.000000e+00 -1.000000e+00
    outer loop
      vertex   3.250000e+00 -2.480000e+00  9.010000e+00
      vertex   7.730000e-01 -2.480000e+00  9.010000e+00
      vertex   7.730000e-01  2.480000e+00  9.010000e+00
    endloop
  endfacet
  facet normal  0.000000e+00  0.000000e+00 -1.000000e+00
    outer loop
      vertex   3.250000e+00 -2.480000e+00  9.010000e+00
      vertex   7.730000e-01  2.480000e+00  9.010000e+00
      vertex   3.250000e+00  2.480000e+00  9.010000e+00
    endloop
  endfacet
  facet normal  1.000000e+00  0.000000e+00  0.000000e+00
    outer loop
      vertex   3.470000e+00 -1.290000e+00  1.740000e+01
      vertex   3.470000e+00 -1.290000e+00  1.500000e+01
      vertex   3.470000e+00  1.190000e+00  1.500000e+01
    endloop
  endfacet
  facet normal  1.000000e+00 -0.000000e+00  0.000000e+00
    outer loop
      vertex   3.470000e+00 -1.290000e+00  1.740000e+01
      vertex   3.470000e+00  1.190000e+00  1.500000e+01
      vertex   3.470000e+00  1.190000e+00  1.740000e+01
    endloop
  endfacet
  facet normal  0.000000e+00 -1.000000e+00  0.000000e+00
    outer loop
      vertex   6.010000e-01 -1.290000e+00  1.740000e+01
      vertex   6.010000e-01 -1.290000e+00  1.500000e+01
      vertex   3.470000e+00 -1.290000e+00  1.500000e+01
    endloop
  endfacet
  facet normal  0.000000e+00 -1.000000e+00  0.000000e+00
    outer loop
      vertex   6.010000e-01 -1.290000e+00  1.740000e+01
      vertex   3.470000e+00 -1.290000e+00  1.500000e+01
      vertex   3.470000e+00 -1.290000e+00  1.740000e+01
    endloop
  endfacet
  facet normal -1.000000e+00  0.000000e+00 -0.000000e+00
    outer loop
      vertex   6.010000e-01  1.190000e+00  1.740000e+01
      vertex   6.010000e-01  1.190000e+00  1.500000e+01
      vertex   6.010000e-01 -1.290000e+00  1.500000e+01
    endloop
  endfacet
  facet normal -1.000000e+00 -0.000000e+00  0.000000e+00
    outer loop
      vertex   6.010000e-01  1.190000e+00  1.740000e+01
      vertex   6.010000e-01 -1.290000e+00  1.500000e+01
      vertex   6.010000e-01 -1.290000e+00  1.740000e+01
    endloop
  endfacet
  facet normal  0.000000e+00  1.000000e+00  0.000000e+00
    outer loop
      vertex   3.470000e+00  1.190000e+00  1.740000e+01
      vertex   3.470000e+00  1.190000e+00  1.500000e+01
      vertex   6.010000e-01  1.190000e+00  1.500000e+01
    endloop
  endfacet
  facet normal  0.000000e+00  1.000000e+00  0.000000e+00
    outer loop
      vertex   3.470000e+00  1.190000e+00  1.740000e+01
      vertex   6.010000e-01  1.190000e+00  1.500000e+01
      vertex   6.010000e-01  1.190000e+00  1.740000e+01
    endloop
  endfacet
  facet normal  0.000000e+00  0.000000e+00  1.000000e+00
    outer loop
      vertex   6.010000e-01  1.190000e+00  1.740000e+01
      vertex   6.010000e-01 -1.290000e+00  1.740000e+01
      vertex   3.470000e+00 -1.290000e+00  1.740000e+01
    endloop
  endfacet
  facet normal -0.000000e+00  0.000000e+00  1.000000e+00
    outer loop
      vertex   6.010000e-01  1.190000e+00  1.740000e+01
      vertex   3.470000e+00 -1.290000e+00  1.740000e+01
      vertex   3.470000e+00  1.190000e+00  1.740000e+01
    endloop
  endfacet
  facet normal  0.000000e+00  0.000000e+00 -1.000000e+00
    outer loop
      vertex   3.470000e+00 -1.290000e+00  1.500000e+01
      vertex   6.010000e-01 -1.290000e+00  1.500000e+01
      vertex   6.010000e-01  1.190000e+00  1.500000e+01
    endloop
  endfacet
  facet normal  0.000000e+00  0.000000e+00 -1.000000e+00
    outer loop
      vertex   3.470000e+00 -1.290000e+00  1.500000e+01
      vertex   6.010000e-01  1.190000e+00  1.500000e+01
      vertex   3.470000e+00  1.190000e+00  1.500000e+01
    endloop
  endfacet
  facet normal  1.000000e+00  0.000000e+00  0.000000e+00
    outer loop
      vertex   3.150000e+00 -2.470000e+00  8.010000e+00
      vertex   3.150000e+00 -2.470000e+00  3.050000e+00
      vertex   3.150000e+00 -4.860000e-01  3.050000e+00
    endloop
  endfacet
  facet normal  1.000000e+00 -0.000000e+00  0.000000e+00
    outer loop
      vertex   3.150000e+00 -2.470000e+00  8.010000e+00
      vertex   3.150000e+00 -4.860000e-01  3.050000e+00
      vertex   3.150000e+00 -4.860000e-01  8.010000e+00
    endloop
  endfacet
  facet normal  0.000000e+00 -1.000000e+00  0.000000e+00
    outer loop
      vertex   8.920000e-01 -2.470000e+00  8.010000e+00
      vertex   8.920000e-01 -2.470000e+00  3.050000e+00
      vertex   3.150000e+00 -2.470000e+00  3.050000e+00
    endloop
  endfacet
  facet normal  0.000000e+00 -1.000000e+00  0.000000e+00
    outer loop
      vertex   8.920000e-01 -2.470000e+00  8.010000e+00
      vertex   3.150000e+00 -2.470000e+00  3.050000e+00
      vertex   3.150000e+00 -2.470000e+00  8.010000e+00
    endloop
  endfacet
  facet normal -1.000000e+00  0.000000e+00 -0.000000e+00
    outer loop
      vertex   8.920000e-01 -4.860000e-01  8.010000e+00
      vertex   8.920000e-01 -4.860000e-01  3.050000e+00
      vertex   8.920000e-01 -2.470000e+00  3.050000e+00
    endloop
  endfacet
  facet normal -1.000000e+00 -0.000000e+00  0.000000e+00
    outer loop
      vertex   8.920000e-01 -4.860000e-01  8.010000e+00
      vertex   8.920000e-01 -2.470000e+00  3.050000e+00
      vertex   8.920000e-01 -2.470000e+00  8.010000e+00
    endloop
  endfacet
  facet normal  0.000000e+00  1.000000e+00  0.000000e+00
    outer loop
      vertex   3.150000e+00 -4.860000e-01  8.010000e+00
      vertex   3.150000e+00 -4.860000e-01  3.050000e+00
      vertex   8.920000e-01 -4.860000e-01  3.050000e+00
    endloop
  endfacet
  facet normal  0.000000e+00  1.000000e+00  0.000000e+00
    outer loop
      vertex   3.150000e+00 -4.860000e-01  8.010000e+00
      vertex   8.920000e-01 -4.860000e-01  3.050000e+00
      vertex   8.920000e-01 -4.860000e-01  8.010000e+00
    endloop
  endfacet
  facet normal  0.000000e+00  0.000000e+00  1.000000e+00
    outer loop
      vertex   8.920000e-01 -4.860000e-01  8.010000e+00
      vertex   8.920000e-01 -2.470000e+00  8.010000e+00
      vertex   3.150000e+00 -2.470000e+00  8.010000e+00
    endloop
  endfacet
  facet normal -0.000000e+00  0.000000e+00  1.000000e+00
    outer loop
      vertex   8.920000e-01 -4.860000e-01  8.010000e+00
      vertex   3.150000e+00 -2.470000e+00  8.010000e+00
      vertex   3.150000e+00 -4.860000e-01  8.010000e+00
    endloop
  endfacet
  facet normal  0.000000e+00  0.000000e+00 -1.000000e+00
    outer loop
      vertex   3.150000e+00 -2.470000e+00  3.050000e+00
      vertex   8.920000e-01 -2.470000e+00  3.050000e+00
      vertex   8.920000e-01 -4.860000e-01  3.050000e+00
    endloop
  endfacet
  facet normal  0.000000e+00  0.000000e+00 -1.000000e+00
    outer loop
      vertex   3.150000e+00 -2.470000e+00  3.050000e+00
      vertex   8.920000e-01 -4.860000e-01  3.050000e+00
      vertex   3.150000e+00 -4.860000e-01  3.050000e+00
    endloop
  endfacet
  facet normal  1.000000e+00  0.000000e+00  0.000000e+00
    outer loop
      vertex   3.230000e+00 -3.960000e+00  1.400000e+01
      vertex   3.230000e+00 -3.960000e+00  9.010000e+00
      vertex   3.230000e+00 -2.480000e+00  9.010000e+00
    endloop
  endfacet
  facet normal  1.000000e+00 -0.000000e+00  0.000000e+00
    outer loop
      vertex   3.230000e+00 -3.960000e+00  1.400000e+01
      vertex   3.230000e+00 -2.480000e+00  9.010000e+00
      vertex   3.230000e+00 -2.480000e+00  1.400000e+01
    endloop
  endfacet
  facet normal  0.000000e+00 -1.000000e+00  0.000000e+00
    outer loop
      vertex   7.470000e-01 -3.960000e+00  1.400000e+01
      vertex   7.470000e-01 -3.960000e+00  9.010000e+00
      vertex   3.230000e+00 -3.960000e+00  9.010000e+00
    endloop
  endfacet
  facet normal  0.000000e+00 -1.000000e+00  0.000000e+00
    outer loop
      vertex   7.470000e-01 -3.960000e+00  1.400000e+01
      vertex   3.230000e+00 -3.960000e+00  9.010000e+00
      vertex   3.230000e+00 -3.960000e+00  1.400000e+01
    endloop
  endfacet
  facet normal -1.000000e+00  0.000000e+00 -0.000000e+00
    outer loop
      vertex   7.470000e-01 -2.480000e+00  1.400000e+01
      vertex   7.470000e-01 -2.480000e+00  9.010000e+00
      vertex   7.470000e-01 -3.960000e+00  9.010000e+00
    endloop
  endfacet
  facet normal -1.000000e+00 -0.000000e+00  0.000000e+00
    outer loop
      vertex   7.470000e-01 -2.480000e+00  1.400000e+01
      vertex   7.470000e-01 -3.960000e+00  9.010000e+00
      vertex   7.470000e-01 -3.960000e+00  1.400000e+01
    endloop
  endfacet
  facet normal  0.000000e+00  1.000000e+00  0.000000e+00
    outer loop
      vertex   3.230000e+00 -2.480000e+00  1.400000e+01
      vertex   3.230000e+00 -2.480000e+00  9.010000e+00
      vertex   7.470000e-01 -2.480000e+00  9.010000e+00
    endloop
  endfacet
  facet normal  0.000000e+00  1.000000e+00  0.000000e+00
    outer loop
      vertex   3.230000e+00 -2.480000e+00  1.400000e+01
      vertex   7.470000e-01 -2.480000e+00  9.010000e+00
      vertex   7.470000e-01 -2.480000e+00  1.400000e+01
    endloop
  endfacet
  facet normal  0.000000e+00  0.000000e+00  1.000000e+00
    outer loop
      vertex   7.470000e-01 -2.480000e+00  1.400000e+01
      vertex   7.470000e-01 -3.960000e+00  1.400000e+01
      vertex   3.230000e+00 -3.960000e+00  1.400000e+01
    endloop
  endfacet
  facet normal -0.000000e+00  0.000000e+00  1.000000e+00
    outer loop
      vertex   7.470000e-01 -2.480000e+00  1.400000e+01
      vertex   3.230000e+00 -3.960000e+00  1.400000e+01
      vertex   3.230000e+00 -2.480000e+00  1.400000e+01
    endloop
  endfacet
  facet normal  0.000000e+00  0.000000e+00 -1.000000e+00
    outer loop
      vertex   3.230000e+00 -3.960000e+00  9.010000e+00
      vertex   7.470000e-01 -3.960000e+00  9.010000e+00
      vertex   7.470000e-01 -2.480000e+00  9.010000e+00
    endloop
  endfacet
  facet normal  0.000000e+00  0.000000e+00 -1.000000e+00
    outer loop
      vertex   3.230000e+00 -3.960000e+00  9.010000e+00
      vertex   7.470000e-01 -2.480000e+00  9.010000e+00
      vertex   3.230000e+00 -2.480000e+00  9.010000e+00
    endloop
  endfacet
  facet normal  1.000000e+00  0.000000e+00  0.000000e+00
    outer loop
      vertex   3.270000e+00  2.460000e+00  1.400000e+01
      vertex   3.270000e+00  2.460000e+00  9.010000e+00
      vertex   3.270000e+00  3.950000e+00  9.010000e+00
    endloop
  endfacet
  facet normal  1.000000e+00 -0.000000e+00  0.000000e+00
    outer loop
      vertex   3.270000e+00  2.460000e+00  1.400000e+01
      vertex   3.270000e+00  3.950000e+00  9.010000e+00
      vertex   3.270000e+00  3.950000e+00  1.400000e+01
    endloop
  endfacet
  facet normal  0.000000e+00 -1.000000e+00  0.000000e+00
    outer loop
      vertex   7.950000e-01  2.460000e+00  1.400000e+01
      vertex   7.950000e-01  2.460000e+00  9.010000e+00
      vertex   3.270000e+00  2.460000e+00  9.010000e+00
    endloop
  endfacet
  facet normal  0.000000e+00 -1.000000e+00  0.000000e+00
    outer loop
      vertex   7.950000e-01  2.460000e+00  1.400000e+01
      vertex   3.270000e+00  2.460000e+00  9.010000e+00
      vertex   3.270000e+00  2.460000e+00  1.400000e+01
    endloop
  endfacet
  facet normal -1.000000e+00  0.000000e+00 -0.000000e+00
    outer loop
      vertex   7.950000e-01  3.950000e+00  1.400000e+01
      vertex   7.950000e-01  3.950000e+00  9.010000e+00
      vertex   7.950000e-01  2.460000e+00  9.010000e+00
    endloop
  endfacet
  facet normal -1.000000e+00 -0.000000e+00  0.000000e+00
    outer loop
      vertex   7.950000e-01  3.950000e+00  1.400000e+01
      vertex   7.950000e-01  2.460000e+00  9.010000e+00
      vertex   7.950000e-01  2.460000e+00  1.400000e+01
    endloop
  endfacet
  facet normal  0.000000e+00  1.000000e+00  0.000000e+00
    outer loop
      vertex   3.270000e+00  3.950000e+00  1.400000e+01
      vertex   3.270000e+00  3.950000e+00  9.010000e+00
      vertex   7.950000e-01  3.950000e+00  9.010000e+00
    endloop
  endfacet
  facet normal  0.000000e+00  1.000000e+00  0.000000e+00
    outer loop
      vertex   3.270000e+00  3.950000e+00  1.400000e+01
      vertex   7.950000e-01  3.950000e+00  9.010000e+00
      vertex   7.950000e-01  3.950000e+00  1.400000e+01
    endloop
  endfacet
  facet normal  0.000000e+00  0.000000e+00  1.000000e+00
    outer loop
      vertex   7.950000e-01  3.950000e+00  1.400000e+01
      vertex   7.950000e-01  2.460000e+00  1.400000e+01
      vertex   3.270000e+00  2.460000e+00  1.400000e+01
    endloop
  endfacet
  facet normal -0.000000e+00  0.000000e+00  1.000000e+00
    outer loop
      vertex   7.950000e-01  3.950000e+00  1.400000e+01
      vertex   3.270000e+00  2.460000e+00  1.400000e+01
      vertex   3.270000e+00  3.950000e+00  1.400000e+01
    endloop
  endfacet
  facet normal  0.000000e+00  0.000000e+00 -1.000000e+00
    outer loop
      vertex   3.270000e+00  2.460000e+00  9.010000e+00
      vertex   7.950000e-01  2.460000e+00  9.010000e+00
      vertex   7.950000e-01  3.950000e+00  9.010000e+00
    endloop
  endfacet
  facet normal  0.000000e+00  0.000000e+00 -1.000000e+00
    outer loop
      vertex   3.270000e+00  2.460000e+00  9.010000e+00
      vertex   7.950000e-01  3.950000e+00  9.010000e+00
      vertex   3.270000e+00  3.950000e+00  9.010000e+00
    endloop
  endfacet
  facet normal  1.000000e+00  0.000000e+00  0.000000e+00
    outer loop
      vertex   2.490000e+00 -4.980000e-01  1.500000e+01
      vertex   2.490000e+00 -4.980000e-01  1.400000e+01
      vertex   2.490000e+00  4.930000e-01  1.400000e+01
    endloop
  endfacet
  facet normal  1.000000e+00 -0.000000e+00  0.000000e+00
    outer loop
      vertex   2.490000e+00 -4.980000e-01  1.500000e+01
      vertex   2.490000e+00  4.930000e-01  1.400000e+01
      vertex   2.490000e+00  4.930000e-01  1.500000e+01
    endloop
  endfacet
  facet normal  0.000000e+00 -1.000000e+00  0.000000e+00
    outer loop
      vertex   1.500000e+00 -4.980000e-01  1.500000e+01
      vertex   1.500000e+00 -4.980000e-01  1.400000e+01
      vertex   2.490000e+00 -4.980000e-01  1.400000e+01
    endloop
  endfacet
  facet normal  0.000000e+00 -1.000000e+00  0.000000e+00
    outer loop
      vertex   1.500000e+00 -4.980000e-01  1.500000e+01
      vertex   2.490000e+00 -4.980000e-01  1.400000e+01
      vertex   2.490000e+00 -4.980000e-01  1.500000e+01
    endloop
  endfacet
  facet normal -1.000000e+00  0.000000e+00 -0.000000e+00
    outer loop
      vertex   1.500000e+00  4.930000e-01  1.500000e+01
      vertex   1.500000e+00  4.930000e-01  1.400000e+01
      vertex   1.500000e+00 -4.980000e-01  1.400000e+01
    endloop
  endfacet
  facet normal -1.000000e+00 -0.000000e+00  0.000000e+00
    outer loop
      vertex   1.500000e+00  4.930000e-01  1.500000e+01
      vertex   1.500000e+00 -4.980000e-01  1.400000e+01
      vertex   1.500000e+00 -4.980000e-01  1.500000e+01
    endloop
  endfacet
  facet normal  0.000000e+00  1.000000e+00  0.000000e+00
    outer loop
      vertex   2.490000e+00  4.930000e-01  1.500000e+01
      vertex   2.490000e+00  4.930000e-01  1.400000e+01
      vertex   1.500000e+00  4.930000e-01  1.400000e+01
    endloop
  endfacet
  facet normal  0.000000e+00  1.000000e+00  0.000000e+00
    outer loop
      vertex   2.490000e+00  4.930000e-01  1.500000e+01
      vertex   1.500000e+00  4.930000e-01  1.400000e+01
      vertex   1.500000e+00  4.930000e-01  1.500000e+01
    endloop
  endfacet
  facet normal  0.000000e+00  0.000000e+00  1.000000e+00
    outer loop
      vertex   1.500000e+00  4.930000e-01  1.500000e+01
      vertex   1.500000e+00 -4.980000e-01  1.500000e+01
      vertex   2.490000e+00 -4.980000e-01  1.500000e+01
    endloop
  endfacet
  facet normal -0.000000e+00  0.000000e+00  1.000000e+00
    outer loop
      vertex   1.500000e+00  4.930000e-01  1.500000e+01
      vertex   2.490000e+00 -4.980000e-01  1.500000e+01
      vertex   2.490000e+00  4.930000e-01  1.500000e+01
    endloop
  endfacet
  facet normal  0.000000e+00  0.000000e+00 -1.000000e+00
    outer loop
      vertex   2.490000e+00 -4.980000e-01  1.400000e+01
      vertex   1.500000e+00 -4.980000e-01  1.400000e+01
      vertex   1.500000e+00  4.930000e-01  1.400000e+01
    endloop
  endfacet
  facet normal  0.000000e+00  0.000000e+00 -1.000000e+00
    outer loop
      vertex   2.490000e+00 -4.980000e-01  1.400000e+01
      vertex   1.500000e+00  4.930000e-01  1.400000e+01
      vertex   2.490000e+00  4.930000e-01  1.400000e+01
    endloop
  endfacet
  facet normal  1.000000e+00  0.000000e+00  0.000000e+00
    outer loop
      vertex   3.250000e+00 -2.500000e+00  9.010000e+00
      vertex   3.250000e+00 -2.500000e+00  8.010000e+00
      vertex   3.250000e+00  2.450000e+00  8.010000e+00
    endloop
  endfacet
  facet normal  1.000000e+00 -0.000000e+00  0.000000e+00
    outer loop
      vertex   3.250000e+00 -2.500000e+00  9.010000e+00
      vertex   3.250000e+00  2.450000e+00  8.010000e+00
      vertex   3.250000e+00  2.450000e+00  9.010000e+00
    endloop
  endfacet
  facet normal  0.000000e+00 -1.000000e+00  0.000000e+00
    outer loop
      vertex   7.710000e-01 -2.500000e+00  9.010000e+00
      vertex   7.710000e-01 -2.500000e+00  8.010000e+00
      vertex   3.250000e+00 -2.500000e+00  8.010000e+00
    endloop
  endfacet
  facet normal  0.000000e+00 -1.000000e+00  0.000000e+00
    outer loop
      vertex   7.710000e-01 -2.500000e+00  9.010000e+00
      vertex   3.250000e+00 -2.500000e+00  8.010000e+00
      vertex   3.250000e+00 -2.500000e+00  9.010000e+00
    endloop
  endfacet
  facet normal -1.000000e+00  0.000000e+00 -0.000000e+00
    outer loop
      vertex   7.710000e-01  2.450000e+00  9.010000e+00
      vertex   7.710000e-01  2.450000e+00  8.010000e+00
      vertex   7.710000e-01 -2.500000e+00  8.010000e+00
    endloop
  endfacet
  facet normal -1.000000e+00 -0.000000e+00  0.000000e+00
    outer loop
      vertex   7.710000e-01  2.450000e+00  9.010000e+00
      vertex   7.710000e-01 -2.500000e+00  8.010000e+00
      vertex   7.710000e-01 -2.500000e+00  9.010000e+00
    endloop
  endfacet
  facet normal  0.000000e+00  1.000000e+00  0.000000e+00
    outer loop
      vertex   3.250000e+00  2.450000e+00  9.010000e+00
      vertex   3.250000e+00  2.450000e+00  8.010000e+00
      vertex   7.710000e-01  2.450000e+00  8.010000e+00
    endloop
  endfacet
  facet normal  0.000000e+00  1.000000e+00  0.000000e+00
    outer loop
      vertex   3.250000e+00  2.450000e+00  9.010000e+00
      vertex   7.710000e-01  2.450000e+00  8.010000e+00
      vertex   7.710000e-01  2.450000e+00  9.010000e+00
    endloop
  endfacet
  facet normal  0.000000e+00  0.000000e+00  1.000000e+00
    outer loop
      vertex   7.710000e-01  2.450000e+00  9.010000e+00
      vertex   7.710000e-01 -2.500000e+00  9.010000e+00
      vertex   3.250000e+00 -2.500000e+00  9.010000e+00
    endloop
  endfacet
  facet normal -0.000000e+00  0.000000e+00  1.000000e+00
    outer loop
      vertex   7.710000e-01  2.450000e+00  9.010000e+00
      vertex   3.250000e+00 -2.500000e+00  9.010000e+00
      vertex   3.250000e+00  2.450000e+00  9.010000e+00
    endloop
  endfacet
  facet normal  0.000000e+00  0.000000e+00 -1.000000e+00
    outer loop
      vertex   3.250000e+00 -2.500000e+00  8.010000e+00
      vertex   7.710000e-01 -2.500000e+00  8.010000e+00
      vertex   7.710000e-01  2.450000e+00  8.010000e+00
    endloop
  endfacet
  facet normal  0.000000e+00  0.000000e+00 -1.000000e+00
    outer loop
      vertex   3.250000e+00 -2.500000e+00  8.010000e+00
      vertex   7.710000e-01  2.450000e+00  8.010000e+00
      vertex   3.250000e+00  2.450000e+00  8.010000e+00
    endloop
  endfacet
  facet normal  1.000000e+00  0.000000e+00  0.000000e+00
    outer loop
      vertex   3.270000e+00  4.650000e-01  8.010000e+00
      vertex   3.270000e+00  4.650000e-01  3.050000e+00
      vertex   3.270000e+00  2.450000e+00  3.050000e+00
    endloop
  endfacet
  facet normal  1.000000e+00 -0.000000e+00  0.000000e+00
    outer loop
      vertex   3.270000e+00  4.650000e-01  8.010000e+00
      vertex   3.270000e+00  2.450000e+00  3.050000e+00
      vertex   3.270000e+00  2.450000e+00  8.010000e+00
    endloop
  endfacet
  facet normal  0.000000e+00 -1.000000e+00  0.000000e+00
    outer loop
      vertex   7.950000e-01  4.650000e-01  8.010000e+00
      vertex   7.950000e-01  4.650000e-01  3.050000e+00
      vertex   3.270000e+00  4.650000e-01  3.050000e+00
    endloop
  endfacet
  facet normal  0.000000e+00 -1.000000e+00  0.000000e+00
    outer loop
      vertex   7.950000e-01  4.650000e-01  8.010000e+00
      vertex   3.270000e+00  4.650000e-01  3.050000e+00
      vertex   3.270000e+00  4.650000e-01  8.010000e+00
    endloop
  endfacet
  facet normal -1.000000e+00  0.000000e+00 -0.000000e+00
    outer loop
      vertex   7.950000e-01  2.450000e+00  8.010000e+00
      vertex   7.950000e-01  2.450000e+00  3.050000e+00
      vertex   7.950000e-01  4.650000e-01  3.050000e+00
    endloop
  endfacet
  facet normal -1.000000e+00 -0.000000e+00  0.000000e+00
    outer loop
      vertex   7.950000e-01  2.450000e+00  8.010000e+00
      vertex   7.950000e-01  4.650000e-01  3.050000e+00
      vertex   7.950000e-01  4.650000e-01  8.010000e+00
    endloop
  endfacet
  facet normal  0.000000e+00  1.000000e+00  0.000000e+00
    outer loop
      vertex   3.270000e+00  2.450000e+00  8.010000e+00
      vertex   3.270000e+00  2.450000e+00  3.050000e+00
      vertex   7.950000e-01  2.450000e+00  3.050000e+00
    endloop
  endfacet
  facet normal  0.000000e+00  1.000000e+00  0.000000e+00
    outer loop
      vertex   3.270000e+00  2.450000e+00  8.010000e+00
      vertex   7.950000e-01  2.450000e+00  3.050000e+00
      vertex   7.950000e-01  2.450000e+00  8.010000e+00
    endloop
  endfacet
  facet normal  0.000000e+00  0.000000e+00  1.000000e+00
    outer loop
      vertex   7.950000e-01  2.450000e+00  8.010000e+00
      vertex   7.950000e-01  4.650000e-01  8.010000e+00
      vertex   3.270000e+00  4.650000e-01  8.010000e+00
    endloop
  endfacet
  facet normal -0.000000e+00  0.000000e+00  1.000000e+00
    outer loop
      vertex   7.950000e-01  2.450000e+00  8.010000e+00
      vertex   3.270000e+00  4.650000e-01  8.010000e+00
      vertex   3.270000e+00  2.450000e+00  8.010000e+00
    endloop
  endfacet
  facet normal  0.000000e+00  0.000000e+00 -1.000000e+00
    outer loop
      vertex   3.270000e+00  4.650000e-01  3.050000e+00
      vertex   7.950000e-01  4.650000e-01  3.050000e+00
      vertex   7.950000e-01  2.450000e+00  3.050000e+00
    endloop
  endfacet
  facet normal  0.000000e+00  0.000000e+00 -1.000000e+00
    outer loop
      vertex   3.270000e+00  4.650000e-01  3.050000e+00
      vertex   7.950000e-01  2.450000e+00  3.050000e+00
      vertex   3.270000e+00  2.450000e+00  3.050000e+00
    endloop
  endfacet
endsolid vcg
